<svg xmlns="http://www.w3.org/2000/svg" xmlns:xlink="http://www.w3.org/1999/xlink" width="500" zoomAndPan="magnify" viewBox="0 0 375 374.999991" height="500" preserveAspectRatio="xMidYMid meet" version="1.0"><path fill="#040404" d="M 150.738281 76.082031 C 128.898438 88.074219 135.425781 90.265625 145.550781 97.484375 C 173.78125 117.621094 178.03125 115.871094 180.632812 120.203125 C 181.722656 122.019531 177.289062 177.003906 186.75 180 C 190.898438 181.308594 221.671875 158.558594 224.449219 160.28125 C 228.46875 162.777344 245.113281 187.722656 249.003906 193.925781 C 250.75 196.710938 254 205.5 258.144531 204.730469 C 262.128906 203.992188 263.417969 197.085938 264.8125 193.925781 C 282.667969 153.515625 316.507812 86.648438 350.066406 17.300781 C 352.144531 13.011719 361.667969 0.0117188 347.546875 1.871094 C 309.144531 6.929688 207.375 44.984375 150.738281 76.082031 Z M 188.574219 159.148438 C 187.988281 159.148438 187.144531 149.097656 187.757812 145.421875 C 189.039062 137.726562 193.066406 129.59375 195.6875 122.238281 C 198.136719 115.359375 199.320312 109.488281 205.664062 105.15625 C 204.152344 111.6875 193.011719 139.796875 188.574219 159.148438 Z M 193.152344 116.136719 C 187.933594 132.09375 188.132812 132 187.660156 132 C 187.660156 124.957031 184.558594 121.101562 193.152344 116.136719 Z M 243.292969 81.667969 C 240.671875 89.523438 241.917969 93.582031 230.683594 101.496094 C 231.5 95.957031 234.484375 90.324219 236.273438 85.023438 C 236.882812 83.230469 237.210938 79.539062 238.199219 78.148438 C 239.75 75.980469 243.777344 73.15625 246.242188 72.210938 C 245.769531 75.410156 244.316406 78.601562 243.292969 81.667969 Z M 258.449219 63.058594 C 258.042969 65.785156 256.773438 68.382812 255.90625 70.988281 C 253.847656 77.164062 252.484375 83.800781 245.9375 86.851562 C 253.464844 63.710938 250.507812 68.960938 258.449219 63.058594 Z M 226.925781 99.664062 C 224.988281 105.113281 225.953125 108.722656 215.425781 116.136719 C 216.078125 111.777344 218.328125 107.152344 219.875 103.019531 C 222.941406 94.808594 224.257812 86.335938 233.125 82.277344 C 231.152344 88.097656 228.988281 93.871094 226.925781 99.664062 Z M 202.609375 129.558594 C 201.417969 129.558594 205.472656 119.148438 206.273438 116.746094 C 209.121094 108.203125 210.671875 99.507812 218.476562 94.171875 C 206.710938 128.339844 209.96875 121.390625 202.609375 129.558594 Z M 196.8125 167.382812 C 203.613281 146.15625 201.578125 152.375 205.96875 139.320312 L 219.390625 153.960938 Z M 341.746094 18.828125 C 270.714844 163.179688 275.53125 153.191406 257.226562 193.3125 C 250.496094 186.152344 246.925781 173.28125 221.25 145.726562 C 217.386719 141.582031 213.5625 137.253906 209.019531 133.832031 C 215.210938 120.558594 330.382812 23.195312 341.746094 18.828125 Z M 258.753906 75.566406 C 259.628906 71.867188 264.425781 59.195312 264.707031 58.839844 C 266.371094 56.753906 270.007812 54.539062 272.484375 53.601562 C 268.746094 67.308594 267.894531 69.210938 258.753906 75.566406 Z M 273.707031 62.753906 C 276.953125 48.707031 279.136719 48.34375 285.300781 45.058594 C 282.925781 55.3125 282.378906 57.015625 273.707031 62.753906 Z M 287.738281 51.160156 C 289.996094 44.226562 289.519531 39.714844 299.640625 36.519531 C 297.78125 43.335938 293.703125 47.4375 287.738281 51.160156 Z M 303.304688 38.652344 C 304.269531 34.464844 305.300781 32.121094 309.710938 30.722656 C 308.914062 34.574219 306.875 36.875 303.304688 38.652344 Z M 313.980469 30.417969 C 314.484375 26.542969 319.84375 24.773438 323.136719 23.402344 C 321.003906 26.019531 316.992188 28.882812 313.980469 30.417969 Z M 309.40625 18.304688 C 357.933594 3.6875 300.742188 17.558594 224.578125 79.964844 C 183.253906 113.835938 187.753906 115.882812 182.164062 112.417969 C 171.121094 105.566406 160.097656 99.757812 144.941406 88.988281 C 144.941406 82.621094 245.457031 37.554688 309.40625 18.304688 Z M 309.40625 18.304688 " fill-opacity="1" fill-rule="nonzero"/><path fill="#040404" d="M 173.347656 215.203125 C 171.367188 215.960938 171.695312 217.351562 164.511719 230.226562 C 149.691406 256.78125 137.089844 266.632812 136.007812 270.1875 C 135.554688 271.660156 136.625 273.207031 138.226562 273.058594 C 148.132812 272.15625 186.253906 210.277344 173.347656 215.203125 Z M 173.347656 215.203125 " fill-opacity="1" fill-rule="nonzero"/><path fill="#040404" d="M 138.851562 76.675781 C 140.488281 77.007812 140.273438 76.292969 151.65625 69.464844 C 178.382812 53.433594 183.644531 55.726562 188.808594 51.511719 C 190.648438 50.011719 189.164062 47.722656 187.046875 47.960938 C 177.25 49.082031 127.714844 74.429688 138.851562 76.675781 Z M 138.851562 76.675781 " fill-opacity="1" fill-rule="nonzero"/><path fill="#040404" d="M 133.652344 68.492188 C 136.058594 68.722656 140.632812 65.109375 142.039062 63.308594 C 143.089844 61.96875 142.632812 59.917969 140.667969 59.96875 C 138.273438 60.03125 134.078125 63.210938 132.605469 64.980469 C 131.546875 66.25 131.71875 68.304688 133.652344 68.492188 Z M 133.652344 68.492188 " fill-opacity="1" fill-rule="nonzero"/><path fill="#040404" d="M 19.835938 212.039062 C 22.195312 211.707031 22.039062 208.15625 28.703125 200.636719 C 40.375 187.464844 44.691406 192.511719 49.402344 188.84375 C 56.417969 183.386719 35.53125 177.945312 21.273438 200.332031 C 19.652344 202.871094 17.925781 205.832031 17.535156 208.871094 C 17.351562 210.296875 18.03125 212.292969 19.835938 212.039062 Z M 19.835938 212.039062 " fill-opacity="1" fill-rule="nonzero"/><path fill="#040404" d="M 23.804688 186.492188 C 25.597656 186.464844 29.664062 184.105469 30.636719 182.625 C 31.628906 181.113281 30.363281 179.5625 28.683594 179.78125 C 26.808594 180.023438 23.546875 181.667969 22.503906 183.261719 C 21.703125 184.484375 22.03125 186.515625 23.804688 186.492188 Z M 23.804688 186.492188 " fill-opacity="1" fill-rule="nonzero"/><path fill="#040404" d="M 280.738281 122.46875 C 277.808594 123.558594 276.144531 130.015625 274.847656 132.609375 C 263.601562 155.101562 252.269531 176.695312 259.363281 174.75 C 262.355469 173.929688 264.082031 166.890625 265.253906 164.335938 C 274.136719 144.988281 289.492188 119.21875 280.738281 122.46875 Z M 280.738281 122.46875 " fill-opacity="1" fill-rule="nonzero"/><path fill="#040404" d="M 290.800781 106.640625 C 288.199219 107.074219 286.164062 114.089844 289.878906 113.566406 C 292.699219 113.167969 294.429688 106.035156 290.800781 106.640625 Z M 290.800781 106.640625 " fill-opacity="1" fill-rule="nonzero"/><path fill="#040404" d="M 38.011719 341.261719 C 39.0625 340.015625 42.765625 333.078125 37.84375 334.78125 C 35.160156 335.710938 32.90625 338.9375 31.078125 340.957031 C 20.546875 352.585938 10.507812 354.433594 8.339844 356.886719 C 3.910156 361.902344 17.382812 365.753906 38.011719 341.261719 Z M 38.011719 341.261719 " fill-opacity="1" fill-rule="nonzero"/><path fill="#040404" d="M 47.578125 350.71875 C 78.601562 317.421875 80.46875 290.019531 82.5625 288.0625 C 84.960938 285.820312 110.015625 290.183594 139.972656 255.851562 C 158.097656 235.078125 173.1875 202.113281 173.671875 200.636719 C 174.257812 198.824219 173.925781 196.738281 172.097656 195.808594 C 162.761719 191.066406 151.582031 252.511719 106.191406 273.9375 C 99.296875 277.1875 91.339844 280.1875 83.609375 280.253906 C 85.640625 269.324219 85.417969 257.359375 83.875 246.390625 C 77.710938 202.585938 46.714844 189.703125 32.09375 205.222656 C 10.121094 228.550781 28.378906 283.890625 75.066406 287.574219 C 73.058594 292.894531 65.273438 326.820312 34.789062 353.289062 C 28.539062 358.71875 23.035156 363.753906 14.957031 366.269531 C 12.941406 366.894531 10.425781 367.878906 11.121094 370.546875 C 12.289062 375.003906 19.585938 372.179688 22.277344 371.027344 C 32.257812 366.761719 40.316406 358.511719 47.578125 350.71875 Z M 30.164062 236.632812 C 27.085938 207.894531 49.386719 193.710938 66.320312 218.9375 C 79.640625 238.792969 79.085938 269.195312 76.285156 280.558594 C 52.960938 277.609375 32.765625 260.949219 30.164062 236.632812 Z M 30.164062 236.632812 " fill-opacity="1" fill-rule="nonzero"/><path fill="#040404" d="M 120.839844 278.636719 C 117.875 279.652344 118.484375 284.289062 121.75 283.074219 C 124.789062 281.949219 124.371094 277.429688 120.839844 278.636719 Z M 120.839844 278.636719 " fill-opacity="1" fill-rule="nonzero"/></svg>