<svg xmlns="http://www.w3.org/2000/svg" xmlns:xlink="http://www.w3.org/1999/xlink" width="500" zoomAndPan="magnify" viewBox="0 0 375 374.999991" height="500" preserveAspectRatio="xMidYMid meet" version="1.0"><defs><clipPath id="be1a978232"><path d="M 65 37.5 L 310 37.5 L 310 345 L 65 345 Z M 65 37.5 " clip-rule="nonzero"/></clipPath></defs><g clip-path="url(#be1a978232)"><path fill="#137cbe" d="M 297.304688 250.253906 C 284.675781 281.832031 221.261719 344.996094 187.316406 344.996094 C 187.238281 344.996094 187.160156 344.996094 187.078125 344.996094 C 153.078125 344.707031 89.925781 281.761719 77.328125 250.257812 C 57.582031 200.886719 68.550781 92.515625 68.550781 92.515625 C 68.550781 92.515625 137.5625 102.90625 187.082031 37.808594 C 187.164062 37.707031 187.238281 37.601562 187.320312 37.5 C 224.183594 105.304688 306.085938 92.515625 306.085938 92.515625 C 306.085938 92.515625 317.054688 200.886719 297.308594 250.253906 Z M 297.304688 250.253906 " fill-opacity="1" fill-rule="nonzero"/></g><path stroke-linecap="butt" transform="matrix(0.387998, 0, 0, 0.388847, 65.514389, 37.499998)" fill-opacity="1" fill="#bcbec0" fill-rule="nonzero" stroke-linejoin="miter" d="M 518.027297 504.647393 C 494.589661 563.123604 376.908162 680.076025 313.934616 680.076025 C 250.951003 680.076025 133.259437 563.123604 109.8218 504.647393 C 73.175325 413.231225 93.532241 212.567712 93.532241 212.567712 C 93.532241 212.567712 221.986192 231.865565 313.924549 110.703982 C 382.33466 236.245505 534.306789 212.567712 534.306789 212.567712 C 534.306789 212.567712 554.673773 413.241271 518.017229 504.647393 Z M 518.027297 504.647393 " stroke="#137cbe" stroke-width="1" stroke-opacity="1" stroke-miterlimit="10"/><path fill="#d5d5d0" d="M 220.101562 171.324219 L 210.296875 171.324219 C 210.296875 171.324219 210.378906 170.652344 210.433594 169.492188 C 210.816406 162.421875 210.53125 137.300781 187.320312 137.796875 C 164.171875 138.292969 164.105469 162.5625 164.558594 169.492188 C 164.636719 170.652344 164.726562 171.324219 164.726562 171.324219 L 154.054688 171.324219 C 154.054688 171.324219 154.027344 170.660156 154.046875 169.492188 C 154.1875 161.175781 156.632812 127.390625 187.320312 127.390625 C 218.003906 127.390625 220.082031 161.175781 220.128906 169.492188 C 220.136719 170.660156 220.101562 171.324219 220.101562 171.324219 Z M 220.101562 171.324219 " fill-opacity="1" fill-rule="nonzero"/><path stroke-linecap="butt" transform="matrix(0.387998, 0, 0, 0.388847, 65.514389, 37.499998)" fill-opacity="1" fill="#f1ca60" fill-rule="nonzero" stroke-linejoin="miter" d="M 427.407811 347.260898 L 427.407811 511.046525 C 427.407811 515.356145 424.014992 518.85206 419.836891 518.85206 L 208.002139 518.85206 C 203.824038 518.85206 200.441286 515.356145 200.441286 511.046525 L 200.441286 347.260898 C 200.441286 342.951278 203.824038 339.455363 208.002139 339.455363 L 419.836891 339.455363 C 424.014992 339.455363 427.407811 342.951278 427.407811 347.260898 Z M 427.407811 347.260898 " stroke="#ed8606" stroke-width="1" stroke-opacity="1" stroke-miterlimit="10"/><path fill="#383416" d="M 197.410156 202.832031 C 197.410156 197.246094 192.890625 192.714844 187.316406 192.714844 C 181.738281 192.714844 177.21875 197.246094 177.21875 202.832031 C 177.21875 206.457031 179.121094 209.632812 181.976562 211.421875 L 181.976562 230.007812 L 192.644531 230.007812 L 192.644531 211.421875 C 195.5 209.636719 197.40625 206.457031 197.40625 202.835938 Z M 197.410156 202.832031 " fill-opacity="1" fill-rule="nonzero"/></svg>